Coordinates
version=1
nRows=24
nColumns=24
inDegrees=yes

Units are S.I. units (second, meters, Newtons, ...)
Angles are in degrees.

endheader
time	pelvis_tilt	pelvis_list	pelvis_rotation	pelvis_tx	pelvis_ty	pelvis_tz	hip_flexion_r	hip_adduction_r	hip_rotation_r	knee_angle_r	ankle_angle_r	subtalar_angle_r	mtp_angle_r	hip_flexion_l	hip_adduction_l	hip_rotation_l	knee_angle_l	ankle_angle_l	subtalar_angle_l	mtp_angle_l	lumbar_extension	lumbar_bending	lumbar_rotation
      0.70400000	     -2.60212242	      3.03341716	     13.67511470	      0.07506282	      0.97469079	      0.27850739	     27.45937477	     -8.08686075	    -10.34423901	      1.88035545	      6.87970982	    -13.87566912	      6.02892314	    -20.80514004	      1.73560495	     15.00615742	     -1.31607418	     10.92504028	    -10.10517531	      8.03652127	      0.61054389	     -4.24734881	     -4.73158291
      0.70816667	     -2.60120955	      2.97918598	     13.81041869	      0.08098103	      0.97416050	      0.27885933	     27.43554500	     -8.04630657	    -10.24593405	      1.50501978	      6.96442127	    -14.03611037	      6.02103289	    -20.96716197	      1.54750237	     15.04763937	     -1.62051040	     10.80755861	    -10.04878312	      8.04880893	      0.62629135	     -4.16779251	     -4.78679369
      0.71233333	     -2.58517970	      2.91906902	     13.93307867	      0.08695454	      0.97367604	      0.27926479	     27.36455519	     -7.97899284	    -10.02933935	      1.16311077	      6.95993643	    -14.34912677	      6.00304713	    -21.12444974	      1.35230882	     15.02057024	     -1.96543820	     10.71700514	     -9.85560927	      8.10271854	      0.63284121	     -4.06747412	     -4.99873587
      0.71650000	     -2.58102128	      2.84312281	     14.06335314	      0.09298689	      0.97322419	      0.27965504	     27.32883085	     -7.90197385	     -9.96624518	      0.74431054	      6.91555772	    -14.49894078	      5.99976353	    -21.25739764	      1.14550534	     15.03167198	     -2.32744190	     10.57158835	     -9.80449389	      8.12104240	      0.65338132	     -3.97832968	     -5.03539973
      0.72066667	     -2.56859061	      2.74153889	     14.17727543	      0.09912905	      0.97280212	      0.28008353	     27.23771340	     -7.77562067	     -9.74214295	      0.40089099	      6.76881015	    -14.90819373	      6.00097589	    -21.37846858	      0.91331960	     14.93192281	     -2.72423484	     10.45860463	     -9.53148285	      8.21656418	      0.69976094	     -3.82459180	     -5.25656799
      0.72483333	     -2.56304457	      2.63720840	     14.29216417	      0.10529596	      0.97242042	      0.28052426	     27.17096554	     -7.64662128	     -9.60299432	      0.00420152	      6.56703821	    -15.21828221	      6.01607210	    -21.47040014	      0.68485313	     14.84578398	     -3.16276700	     10.32594029	     -9.33392759	      8.34169539	      0.74211417	     -3.69176779	     -5.35051234
      0.72900000	     -2.55563594	      2.51868744	     14.39042838	      0.11153778	      0.97206889	      0.28099682	     27.10512526	     -7.49099895	     -9.46678975	     -0.40834095	      6.34206805	    -15.49669199	      6.04255027	    -21.56228469	      0.44695837	     14.75936958	     -3.60128494	     10.14644699	     -9.17688679	      8.47403366	      0.80155553	     -3.53903028	     -5.45065670
      0.73316667	     -2.54072528	      2.40553697	     14.48510143	      0.11778793	      0.97177314	      0.28149570	     27.02582465	     -7.33105389	     -9.30001305	     -0.82097732	      6.03167059	    -15.88234598	      6.10592198	    -21.62442406	      0.21887381	     14.62523670	     -4.11604248	     10.00837724	     -8.95617287	      8.72067723	      0.84425489	     -3.40107712	     -5.56312833
      0.73733333	     -2.54579683	      2.24618070	     14.56292645	      0.12417029	      0.97148363	      0.28198869	     26.98723894	     -7.12490319	     -9.22912104	     -1.27496589	      5.74236119	    -16.06013833	      6.14006922	    -21.68491687	     -0.04531680	     14.54184439	     -4.57173125	      9.73077956	     -8.87995841	      8.83726346	      0.95487741	     -3.19228970	     -5.61349482
      0.74150000	     -2.53303205	      2.09299136	     14.62853029	      0.13054745	      0.97124746	      0.28254711	     26.92049312	     -6.90618232	     -9.07627662	     -1.70661337	      5.32036534	    -16.47606807	      7.62041415	    -21.69796611	     -0.30138149	     14.29101805	     -5.15550565	      9.51465461	     -8.63096661	     13.33387803	      1.02288036	     -3.01339770	     -5.73252101
      0.74566667	     -2.53669092	      1.91854353	     14.68874708	      0.13700800	      0.97104376	      0.28306266	     26.89157071	     -6.67469849	     -9.02523164	     -2.18815812	      4.94746890	    -16.66562184	      7.61658851	    -21.72409661	     -0.56618107	     14.19396566	     -5.67466504	      9.18170768	     -8.58779075	     13.35188034	      1.14405180	     -2.78720635	     -5.76534582
      0.74983333	     -2.54581606	      1.73235843	     14.73570663	      0.14346967	      0.97086516	      0.28366986	     26.85353302	     -6.41323241	     -8.84284528	     -2.62852020	      4.45190807	    -17.15399523	      7.63214023	    -21.67973407	     -0.83536755	     13.97535661	     -6.31884551	      8.94293807	     -8.37100173	     13.44648856	      1.25064342	     -2.57675751	     -5.84588498
      0.75400000	     -2.55099925	      1.52590348	     14.76001515	      0.14999533	      0.97072648	      0.28427748	     26.83985215	     -6.12854250	     -8.73740797	     -3.12314787	      3.98751244	    -17.46395233	      7.66771594	    -21.63223740	     -1.11493588	     13.73675236	     -6.96806750	      8.64245784	     -8.17841708	     13.59616126	      1.37962388	     -2.32858451	     -5.88383021
      0.75816667	     -2.55376446	      1.31613171	     14.75409289	      0.15654204	      0.97062258	      0.28493072	     26.85080918	     -5.83004454	     -8.62990053	     -3.66564322	      3.49898602	    -17.75615674	      7.73400921	    -21.57314577	     -1.38523919	     13.46275748	     -7.64227487	      8.31160527	     -7.97553915	     13.84990913	      1.50439051	     -2.06992770	     -5.91892669
      0.76233333	     -2.54614804	      1.09213513	     14.74233693	      0.16313895	      0.97058606	      0.28554793	     26.86667696	     -5.52306573	     -8.60819550	     -4.24901095	      3.10241920	    -17.84084324	      7.75420656	    -21.52655994	     -1.66127283	     13.26112044	     -8.30451986	      7.85419609	     -7.97775666	     13.93419996	      1.64247175	     -1.77740613	     -5.93773218
      0.76650000	     -2.59315004	      0.85385766	     14.72736217	      0.16970778	      0.97050284	      0.28625681	     26.93947677	     -5.20125501	     -8.46351992	     -4.81981420	      2.61567133	    -18.23246463	      7.83134362	    -21.32436326	     -1.93940673	     12.88817027	     -9.15381850	      7.53583823	     -7.66140421	     14.25647575	      1.82446431	     -1.51977824	     -5.94489804
      0.77066667	     -2.57169499	      0.60707275	     14.66087347	      0.17634761	      0.97054524	      0.28695299	     26.98540719	     -4.85251053	     -8.43282808	     -5.48167061	      2.23910202	    -18.27132717	      7.86179381	    -21.25747546	     -2.21877974	     12.61951670	     -9.87319961	      7.00976132	     -7.63987453	     14.39563623	      1.93724465	     -1.19473701	     -5.95607027
      0.77483333	     -2.61564542	      0.36327503	     14.60036219	      0.18292003	      0.97052027	      0.28771083	     27.11760895	     -4.52077522	     -8.34053767	     -6.18089145	      1.83104870	    -18.54295903	      7.97366071	    -20.99981802	     -2.48528211	     12.14727355	    -10.83357005	      6.68152568	     -7.21308577	     14.94649069	      2.13136130	     -0.91537652	     -5.91545036
      0.77900000	     -2.58010928	      0.10722767	     14.52273431	      0.18953985	      0.97065805	      0.28845637	     27.16501662	     -4.15870617	     -8.30965018	     -6.88102118	      1.49734734	    -18.62382257	      9.20724455	    -20.85606364	     -2.77743134	     11.73936841	    -11.70026349	      6.04414202	     -7.14680894	     21.98771218	      2.22878346	     -0.58488387	     -5.93424867
      0.78316667	     -2.60082233	     -0.13989811	     14.41839562	      0.19614108	      0.97074240	      0.28923197	     27.30512265	     -3.81500162	     -8.26112296	     -7.65731614	      1.25982556	    -18.61893352	      9.19217445	    -20.62119368	     -3.02662472	     11.34612464	    -12.65436810	      5.49819237	     -7.03118477	     22.03740060	      2.39637900	     -0.28141535	     -5.87896531
      0.78733333	     -2.60671908	     -0.39100180	     14.30038217	      0.20272470	      0.97087012	      0.29003534	     27.44607154	     -3.46205928	     -8.22326827	     -8.47033775	      1.04281992	    -18.61725385	      9.17415112	    -20.36599128	     -3.28329005	     10.89504493	    -13.67026503	      4.94804891	     -6.80878973	     22.15475947	      2.54010768	      0.03623642	     -5.83801525
      0.79150000	     -2.60148910	     -0.63749877	     14.16750046	      0.20930176	      0.97104365	      0.29086717	     27.58517882	     -3.10797682	     -8.19387103	     -9.31173220	      0.87242864	    -18.58526293	      9.15220864	    -20.10249365	     -3.53548874	     10.43074966	    -14.71926748	      4.35788972	     -6.59121340	     22.34104326	      2.66651795	      0.35354179	     -5.79883976
      0.79566667	     -2.59899988	     -0.88100789	     14.02709828	      0.21584688	      0.97123853	      0.29171081	     27.72949125	     -2.75680580	     -8.16402438	    -10.16456621	      0.75225773	    -18.51053057	      9.12378303	    -19.80000766	     -3.78247044	      9.94906261	    -15.83064327	      3.73403075	     -6.36897882	     22.59855515	      2.79147818	      0.66704563	     -5.75582086
      0.79983333	     -2.48436472	     -1.15037408	     13.87396567	      0.22239550	      0.97160613	      0.29259636	     27.72173100	     -2.33996439	     -8.12061920	    -10.93728228	      0.61414264	    -18.43387205	      8.90737464	    -19.57546128	     -4.09946449	      9.32244709	    -16.99753919	      3.10657542	     -5.99743479	     24.44078401	      2.77900832	      1.04238746	     -5.77219965
